<?xml version="1.0" standalone="no"?>
<!DOCTYPE svg PUBLIC "-//W3C//DTD SVG 20010904//EN"
 "http://www.w3.org/TR/2001/REC-SVG-20010904/DTD/svg10.dtd">
<svg version="1.0" xmlns="http://www.w3.org/2000/svg"
 width="484.000000pt" height="484.000000pt" viewBox="0 0 484.000000 484.000000"
 preserveAspectRatio="xMidYMid meet">
<metadata>
Created by potrace 1.11, written by Peter Selinger 2001-2013
</metadata>
<g transform="translate(0.000000,484.000000) scale(0.100000,-0.100000)"
fill="#000000" stroke="none">
<path d="M2405 4585 c-5 -28 -10 -54 -11 -60 -2 -5 -5 -21 -8 -35 -3 -14 -32
-147 -65 -295 -33 -149 -62 -281 -65 -295 -2 -14 -12 -59 -21 -100 -9 -41 -19
-86 -21 -100 -3 -14 -9 -41 -14 -60 -5 -19 -11 -46 -14 -60 -2 -14 -21 -99
-41 -190 -20 -91 -38 -176 -41 -190 -3 -14 -19 -86 -35 -160 -39 -173 -36
-158 -44 -207 -4 -27 -13 -44 -23 -47 -9 -3 -73 -16 -142 -31 -69 -14 -152
-32 -185 -40 -33 -8 -73 -16 -90 -19 -16 -3 -41 -8 -55 -11 -36 -7 -171 -34
-195 -39 -11 -3 -238 -50 -505 -106 -267 -56 -534 -112 -595 -125 l-110 -22
40 -11 c22 -6 58 -14 80 -18 22 -3 43 -8 46 -10 3 -2 21 -6 40 -9 19 -3 86
-16 149 -30 209 -44 602 -126 770 -161 271 -56 554 -115 570 -119 8 -1 54 -11
102 -20 88 -18 88 -18 98 -54 7 -28 56 -247 95 -431 2 -8 11 -49 20 -90 9 -41
18 -84 21 -95 2 -11 6 -31 9 -45 3 -14 9 -43 14 -65 14 -68 91 -415 111 -505
10 -47 29 -130 40 -185 12 -55 24 -111 27 -125 3 -14 7 -29 8 -35 23 -102 39
-177 44 -205 6 -29 8 -31 14 -15 6 18 31 129 43 195 3 14 14 63 24 110 10 47
21 96 24 110 3 14 12 56 21 93 8 37 17 82 20 100 3 18 8 40 11 49 3 9 7 25 9
35 10 46 89 410 111 508 14 61 27 121 29 135 3 14 19 88 36 165 17 77 33 148
35 158 2 10 5 26 8 35 3 9 8 35 12 56 12 81 12 81 131 105 59 12 117 24 128
27 30 6 48 10 190 39 72 15 139 29 150 31 11 3 31 7 45 10 14 3 68 14 120 25
52 11 111 22 130 25 19 3 38 8 41 10 3 2 21 6 40 9 19 3 106 21 194 40 88 19
176 37 195 40 19 3 55 11 80 16 70 16 82 19 130 29 25 5 54 11 65 14 11 2 70
14 130 26 61 12 114 26 118 30 5 4 -20 13 -55 19 -35 6 -76 13 -93 16 -16 3
-38 8 -47 11 -9 3 -25 6 -35 8 -29 6 -342 72 -553 116 -107 23 -226 47 -265
55 -80 16 -84 17 -219 46 -56 11 -110 23 -121 25 -11 2 -105 22 -210 43 -104
22 -207 43 -228 47 -20 3 -40 10 -42 15 -3 4 -19 72 -36 151 -17 79 -33 152
-35 163 -3 11 -7 31 -10 45 -3 14 -25 115 -50 225 -49 221 -47 212 -67 310 -8
39 -27 124 -42 190 -27 122 -30 137 -41 190 -3 17 -12 57 -19 90 -8 33 -32
146 -55 250 -50 234 -54 246 -65 180z"/>
</g>
</svg>
